<svg xmlns='http://www.w3.org/2000/svg' xmlns:xlink='http://www.w3.org/1999/xlink'>
    <symbol id="what-s-new" viewBox="0 0 24 24">
        <path fill-rule="evenodd" d="M19.778 1C21.558 1 23 2.443 23 4.222v11.111c0 1.78-1.443 3.223-3.222 3.223l-12.92-.001-4.15 4.152c-.603.603-1.615.22-1.702-.593L1 22V4.222C1 2.442 2.443 1 4.222 1zm0 2H4.222C3.547 3 3 3.547 3 4.222v15.362l2.737-2.736c.157-.156.36-.255.576-.284l.131-.008h13.334c.675 0 1.222-.548 1.222-1.223V4.223C21 3.546 20.453 3 19.778 3zM12 8.5c.552 0 1 .448 1 1v4c0 .552-.448 1-1 1s-1-.448-1-1v-4c0-.552.448-1 1-1zM12 5c.552 0 1 .448 1 1s-.448 1-1 1-1-.448-1-1 .448-1 1-1z"/>
    </symbol>

    <symbol id="attach-files" viewBox="0 0 24 24">
        <path fill-rule="evenodd" d="M10.5 2c2.414 0 4.384 1.901 4.495 4.288L15 6.5V16c0 1.657-1.343 3-3 3-1.598 0-2.904-1.249-2.995-2.824L9 16V8c0-.552.448-1 1-1 .513 0 .936.386.993.883L11 8v8c0 .552.448 1 1 1 .513 0 .936-.386.993-.883L13 16V6.5C13 5.12 11.88 4 10.5 4 9.175 4 8.09 5.032 8.005 6.336L8 6.5V16c0 2.21 1.79 4 4 4 2.142 0 3.891-1.684 3.995-3.8L16 16V6c0-.552.448-1 1-1s1 .448 1 1v10c0 3.314-2.686 6-6 6-3.145 0-5.725-2.42-5.98-5.5H6v-10C6 4.015 8.015 2 10.5 2z"/>
    </symbol>

    <symbol id="burger-menu" viewBox="0 0 24 24">
        <path fill-rule="evenodd" d="M21 18c.552 0 1 .448 1 1s-.448 1-1 1H3c-.552 0-1-.448-1-1s.448-1 1-1h18zm0-7c.552 0 1 .448 1 1s-.448 1-1 1H3c-.552 0-1-.448-1-1s.448-1 1-1h18zm0-7c.552 0 1 .448 1 1s-.448 1-1 1H3c-.552 0-1-.448-1-1s.448-1 1-1h18z"/>
    </symbol>

    <symbol id="child-panels" viewBox="0 0 24 24">
        <path fill-rule="evenodd" d="M22.936 16.892c.042.093.064.194.064.296v.433c0 .4-.222.766-.57.939l-9.57 4.738c-.544.27-1.176.27-1.72 0L1.57 18.56c-.348-.173-.57-.538-.57-.94v-.432c0-.38.296-.688.661-.688.099 0 .196.023.285.067l9.194 4.552c.544.27 1.176.27 1.72 0l9.194-4.552c.33-.163.725-.018.882.325zm0-5c.042.093.064.194.064.296v.433c0 .4-.222.766-.57.939l-9.57 4.738c-.544.27-1.176.27-1.72 0L1.57 13.56c-.348-.173-.57-.538-.57-.94v-.432c0-.38.296-.688.661-.688.099 0 .196.023.285.067l9.194 4.552c.544.27 1.176.27 1.72 0l9.194-4.552c.33-.163.725-.018.882.325zM12.953.728L23.41 6.033c.526.267.74.916.476 1.45-.103.21-.27.38-.476.484l-10.458 5.305c-.6.304-1.306.304-1.906 0L.59 7.967C.063 7.7-.15 7.05.113 6.517c.103-.21.27-.38.476-.484L11.047.728c.6-.304 1.306-.304 1.906 0zM9.718 7.966L7.369 9.164l4.583 2.324c.02.01.043.014.064.01l.032-.01 2.296-1.165-4.626-2.357zm6.523-3.328L11.92 6.843l4.631 2.36 4.345-2.204-4.655-2.361zm-4.257-2.137l-.032.01L3.103 7l2.06 1.045 8.871-4.527-1.986-1.006c-.02-.01-.043-.014-.064-.01z"/>
    </symbol>

    <symbol id="close" viewBox="0 0 24 24">
        <path fill-rule="evenodd" d="M16.21 7.79c.387.388.387 1.016 0 1.404L13.402 12l2.806 2.806c.388.388.388 1.016 0 1.403-.387.388-1.015.388-1.403 0L12 13.403 9.194 16.21c-.388.388-1.016.388-1.403 0-.388-.387-.388-1.015 0-1.403L10.597 12 7.79 9.194c-.388-.388-.388-1.016 0-1.403.387-.388 1.015-.388 1.403 0L12 10.597l2.806-2.806c.388-.388 1.016-.388 1.403 0z"/>
    </symbol>

    <symbol id="copy" viewBox="0 0 24 24">
        <path fill-rule="evenodd" d="M18 9c1.105 0 2 .895 2 2v7c0 1.105-.895 2-2 2h-7c-1.105 0-2-.895-2-2v-7c0-1.105.895-2 2-2h7zm0 2h-7v7h7v-7zm-5-7c1.105 0 2 .895 2 2v1h-2V6H6v7h1v2H6c-1.105 0-2-.895-2-2V6c0-1.105.895-2 2-2h7z"/>
    </symbol>

    <symbol id="domains" viewBox="0 0 24 24">
        <path fill-rule="evenodd" d="M12 1c6.075 0 11 4.925 11 11s-4.925 11-11 11S1 18.075 1 12 5.925 1 12 1zm0 16c-.767 0-1.515.018-2.247.053.183.597.394 1.162.63 1.682C11.068 20.242 11.807 21 12 21c.193 0 .932-.758 1.617-2.265.236-.52.447-1.085.63-1.68C13.514 17.017 12.766 17 12 17zm-4.286.202l-.464.048c-.793.088-1.562.2-2.308.334 1.05 1.327 2.466 2.35 4.095 2.917-.522-.924-.976-2.054-1.323-3.299zm8.572 0c-.348 1.248-.802 2.376-1.324 3.299 1.63-.568 3.045-1.59 4.096-2.916-.89-.162-1.815-.29-2.772-.384zM3.783 8.324l-.076.172C3.252 9.574 3 10.757 3 12c0 1.31.28 2.554.783 3.677 1.164-.193 2.328-.344 3.493-.454C7.098 14.18 7 13.09 7 12s.098-2.178.275-3.224c-1.164-.11-2.328-.26-3.492-.451zm16.434-.002l-.717.114c-.925.14-1.85.252-2.776.34C16.902 9.822 17 10.91 17 12c0 1.09-.098 2.179-.275 3.225 1.164.108 2.328.259 3.492.45C20.72 14.555 21 13.31 21 12c0-1.31-.28-2.554-.783-3.677zm-5.496.602l-.221.012C13.667 8.98 12.833 9 12 9c-.907 0-1.814-.025-2.721-.074C9.099 9.933 9 10.976 9 12c0 1.023.098 2.067.279 3.075.907-.05 1.814-.075 2.721-.075s1.814.025 2.721.074c.18-1.007.279-2.05.279-3.074 0-1.023-.098-2.067-.279-3.075zM12 3c-.193 0-.932.758-1.617 2.265-.236.52-.447 1.085-.63 1.68.732.037 1.48.055 2.247.055.767 0 1.515-.018 2.247-.053-.183-.597-.394-1.162-.63-1.682-.65-1.431-1.35-2.187-1.584-2.26L12 3zm-2.962.5l-.073.025c-1.599.572-2.988 1.584-4.023 2.89.89.162 1.815.29 2.772.384.347-1.246.801-2.376 1.324-3.3zm5.925 0l.102.185c.48.888.897 1.95 1.22 3.113.958-.094 1.882-.221 2.773-.382-1.05-1.327-2.466-2.35-4.095-2.917z"/>
    </symbol>

    <symbol id="down" viewBox="0 0 24 24">
        <path fill-rule="evenodd" d="M7.043 9.146c.391-.395 1.025-.395 1.417 0L12 12.714l3.54-3.568c.392-.395 1.026-.395 1.417 0 .39.394.39 1.033 0 1.427l-4.249 4.281c-.391.395-1.025.395-1.416 0l-4.249-4.281c-.39-.394-.39-1.033 0-1.427z"/>
    </symbol>

    <symbol id="gateways" viewBox="0 0 24 24">
        <path fill-rule="evenodd" d="M17.51 1.767c.034.085.062.171.083.26l.938 3.804h1.803c.548 0 .993.452.993 1.008 0 .169-.042.335-.121.483l-1.05 1.95c-.469.873-1.23 1.524-2.121 1.855v.75c0 .244-.015.485-.043.722l4.376 3.167.119.117c.676.724.69 1.851.005 2.592-.075.081-.157.156-.245.223l-.137.095-1.689 1.076 1.288 1.903.058.112c.051.117.08.245.08.38 0 .53-.436.958-.972.958-.279 0-.53-.116-.708-.3l-.072-.084-1.306-1.93-1.23.783c-.154.103-.34.162-.54.162-.536 0-.97-.429-.97-.958 0-.287.127-.544.329-.721l.09-.07 4.59-2.922-3.637-2.632c-.403.829-.988 1.55-1.703 2.11l-2.735 6.241c-.222.509-.81.738-1.31.512-.225-.101-.405-.284-.505-.512L8.433 16.66c-.738-.579-1.337-1.33-1.742-2.192l-3.749 2.714 4.59 2.921c.253.175.42.464.42.792 0 .53-.435.958-.971.958-.2 0-.386-.06-.54-.162l-1.23-.782-1.306 1.93c-.179.232-.461.383-.78.383-.536 0-.971-.429-.971-.958 0-.135.028-.263.079-.38l.058-.112 1.288-1.903-1.69-1.076c-.14-.09-.268-.196-.38-.318-.686-.74-.672-1.868.004-2.592l.12-.117 4.515-3.27c-.02-.203-.03-.41-.03-.62l-.002-.749c-.89-.331-1.652-.982-2.12-1.854l-1.05-1.951c-.263-.489-.085-1.1.396-1.367.146-.08.31-.123.476-.123L5.62 5.83l.939-3.804C6.825.947 7.903.29 8.967.56c.087.022.173.05.256.084l2.484 1.008c.237.096.501.096.738 0L14.929.645c1.018-.414 2.174.089 2.582 1.122zm-4.518 16.154h-1.833l.917 2.09.916-2.09zm3.056-6.548H8.104v.503c0 2.158 1.672 3.92 3.774 4.025l.198.005c2.127 0 3.864-1.696 3.967-3.828l.005-.202v-.503zm2.612-3.526H5.49l.249.46c.321.598.916.987 1.577 1.044l.166.007h9.187c.671 0 1.293-.343 1.658-.905l.086-.145.247-.461zm-2.994-5.332l-2.484 1.008c-.639.26-1.345.286-1.997.078l-.216-.078-2.483-1.008-.818 3.317h8.815l-.817-3.317z"/>
    </symbol>

    <symbol id="gen-password" viewBox="0 0 24 24">
        <path d="M18.793 13.687c.39-.367 1.024-.367 1.414 0l2.5 2.353c.39.368.39.964 0 1.331l-2.5 2.353c-.195.184-.451.276-.707.276-.256 0-.512-.092-.707-.276-.39-.367-.39-.963 0-1.33l.793-.747h-1.663c-1.528 0-2.951-.644-3.905-1.766l-.704-.827 1.273-1.517.992 1.168c.53.622 1.297.999 2.133 1.053l.21.007h1.664l-.793-.747c-.39-.367-.39-.963 0-1.33zm0-9.411c.39-.368 1.024-.368 1.414 0l2.5 2.353c.39.367.39.963 0 1.33l-2.5 2.353c-.195.184-.451.276-.707.276-.256 0-.512-.092-.707-.276-.39-.367-.39-.963 0-1.33l.793-.747h-1.663c-.917 0-1.77.387-2.343 1.06l-1.968 2.314-1.906 2.242-1.724 2.03c-.954 1.122-2.377 1.766-3.904 1.766H2c-.552 0-1-.422-1-.941 0-.52.448-.941 1-.941h4.077c.917 0 1.77-.387 2.343-1.06L10.72 12l-.002-.002 1.72-2.02 1.58-1.859c.954-1.122 2.377-1.766 3.904-1.766h1.664l-.793-.747c-.39-.367-.39-.963 0-1.33zM6.078 6.353c1.527 0 2.95.644 3.904 1.766l.7.824-1.28 1.506-.981-1.154c-.53-.622-1.297-.999-2.133-1.053l-.21-.007H2c-.552 0-1-.421-1-.941s.448-.941 1-.941z"/>
    </symbol>

    <symbol id="hosted-email" viewBox="0 0 24 24">
        <path fill-rule="evenodd" d="M13.5.288c4.884 1.14 8.366 5.434 8.496 10.423L22 11v1c0 2.21-1.79 4-4 4-1.345 0-2.535-.664-3.26-1.682C13.825 15.35 12.489 16 11 16c-2.761 0-5-2.239-5-5s2.239-5 5-5c1.032 0 1.991.313 2.788.849L14 7c0-.552.448-1 1-1 .513 0 .936.386.993.883L16 7v5c0 1.105.895 2 2 2 1.054 0 1.918-.816 1.995-1.85L20 12v-1c0-4.182-2.882-7.813-6.955-8.764-4.073-.95-8.264 1.03-10.115 4.78-1.852 3.75-.876 8.282 2.356 10.938 3.23 2.655 7.865 2.735 11.186.192.438-.336 1.066-.252 1.402.186.336.438.252 1.066-.186 1.402-4.058 3.108-9.723 3.01-13.672-.235-3.95-3.246-5.142-8.784-2.88-13.368C3.4 1.547 8.523-.873 13.5.288zM11 8c-1.657 0-3 1.343-3 3s1.343 3 3 3 3-1.343 3-3-1.343-3-3-3z"/>
    </symbol>

    <symbol id="invoices" viewBox="0 0 24 24">
        <path fill-rule="evenodd" d="M22 21c0 1.105-.895 2-2 2h-9c-.552 0-1-.448-1-1s.448-1 1-1l.086.004V21H20V9h-3c-1.105 0-2-.895-2-2l-.001-4H8v1c0 .552-.448 1-1 1s-1-.448-1-1V3c0-1.105.895-2 2-2h8.552c.6 0 1.168.27 1.548.734l3.448 4.213c.247.302.4.669.44 1.053H22v14zM7 7c.552 0 1 .448 1 1v1h2c.552 0 1 .448 1 1s-.448 1-1 1H8v1.999l.5.001c1.869 0 3.395 1.464 3.495 3.308L12 16.5c0 1.869-1.464 3.395-3.308 3.495L8.5 20l-.5-.001V22c0 .552-.448 1-1 1s-1-.448-1-1v-2.001L3 20c-.552 0-1-.448-1-1s.448-1 1-1l3-.001V15H5c-1.598 0-2.904-1.249-2.995-2.824L2 12c0-1.598 1.249-2.904 2.824-2.995L5 9h1V8c0-.552.448-1 1-1zm1.5 8H8v2.999l.5.001c.78 0 1.42-.595 1.493-1.356L10 16.5c0-.828-.672-1.5-1.5-1.5zM6 11H5c-.552 0-1 .448-1 1 0 .513.386.936.883.993L5 13l1-.001V11zm13.826-4l-2.827-3.454V7h2.827z"/>
    </symbol>

    <symbol id="left" viewBox="0 0 24 24">
        <path fill-rule="evenodd" d="M14.854 7.043c.395.391.395 1.025 0 1.417L11.286 12l3.568 3.54c.395.392.395 1.026 0 1.417-.394.39-1.033.39-1.427 0l-4.281-4.249c-.395-.391-.395-1.025 0-1.416l4.281-4.249c.394-.39 1.033-.39 1.427 0z"/>
    </symbol>

    <symbol id="logout" viewBox="0 0 24 24">
        <path fill-rule="evenodd" d="M11.011 22c0 .6-.4 1-1.001 1H5.004C3.302 23 2 21.7 2 20V4c0-1.7 1.302-3 3.004-3h5.006c.6 0 1.001.4 1.001 1s-.4 1-1.001 1H5.004c-.601 0-1.001.4-1.001 1v16c0 .6.4 1 1 1h5.007c.6 0 1.001.4 1.001 1zm10.914-9.6c.1-.2.1-.5 0-.8-.1-.1-.1-.2-.2-.3l-4.005-4c-.4-.4-1.002-.4-1.402 0-.4.4-.4 1 0 1.4L18.62 11H9.009c-.601 0-1.001.4-1.001 1s.4 1 1 1h9.613l-2.303 2.3c-.4.4-.4 1 0 1.4.2.2.5.3.7.3.201 0 .501-.1.702-.3l4.005-4c.1-.1.2-.2.2-.3z"/>
    </symbol>

    <symbol id="panels" viewBox="0 0 24 24">
        <path fill-rule="evenodd" d="M21 1c1.105 0 2 .895 2 2v18c0 1.105-.895 2-2 2H3c-1.105 0-2-.895-2-2V3c0-1.105.895-2 2-2h18zM3 21h4V8H3v13zM21 8H9v13h12V8zm0-5H3v3h18V3z"/>
    </symbol>

    <symbol id="parsing-credits" viewBox="0 0 24 24">
        <path fill-rule="evenodd" d="M12 1c6.075 0 11 4.925 11 11s-4.925 11-11 11c-.277 0-.552-.01-.824-.03l.795-1.97H12c4.97 0 9-4.03 9-9s-4.03-9-9-9c-4.882 0-8.856 3.887-8.996 8.735l-.004.27-1.97.807C1.01 12.544 1 12.273 1 12 1 5.925 5.925 1 12 1zm1.638 10.588l-.037.103-4.166 10c-.339.812-1.465.812-1.824.05l-.046-.113-.96-2.82-3.66 3.743c-.387.395-1.02.401-1.415.015-.364-.356-.398-.923-.097-1.319l.082-.095L5.2 17.385l-2.844-.966c-.791-.268-.899-1.296-.278-1.75l.105-.066.11-.054 10-4.166c.756-.315 1.513.354 1.37 1.102l-.025.103zM12 5c3.866 0 7 3.134 7 7 0 3.596-2.712 6.559-6.202 6.955l.91-2.254C15.628 16.003 17 14.16 17 12c0-2.761-2.239-5-5-5-2.141 0-3.968 1.346-4.68 3.238l-2.27.929C5.46 7.694 8.415 5 12 5zm-1.18 8.163l-5.313 2.214 1.847.628c.22.075.406.223.527.417l.055.1.043.108.627 1.846 2.214-5.313z"/>
    </symbol>

    <symbol id="referrals" viewBox="0 0 24 24">
        <path d="M17.072 19v2c0 .6-.402 1-1.004 1-.603 0-1.004-.4-1.004-1v-2c0-1.7-1.305-3-3.012-3H6.02c-1.707 0-3.012 1.3-3.012 3v2c0 .6-.402 1-1.004 1S1 21.6 1 21v-2c0-2.8 2.209-5 5.02-5h6.032c2.811 0 5.02 2.2 5.02 5zM4.016 7c0-2.8 2.209-5 5.02-5 2.811 0 5.02 2.2 5.02 5s-2.209 5-5.02 5c-2.811 0-5.02-2.2-5.02-5zm2.008 0c0 1.7 1.305 3 3.012 3s3.012-1.3 3.012-3-1.305-3-3.012-3-3.012 1.3-3.012 3zm13.257 7.2c-.502-.1-1.105.2-1.205.7-.1.5.2 1.1.703 1.2 1.305.3 2.208 1.5 2.208 2.9v2c0 .6.402 1 1.004 1 .603 0 1.004-.4 1.004-1v-2c.1-2.3-1.405-4.3-3.714-4.8zm-3.016-12c-.502-.2-1.004.1-1.205.7-.1.5.2 1.1.703 1.2 1.606.4 2.61 2 2.208 3.7-.3 1.1-1.104 1.9-2.208 2.2-.502.1-.904.7-.703 1.2.1.5.502.8 1.004.8h.2c1.808-.5 3.213-1.8 3.615-3.6.703-2.8-.904-5.6-3.614-6.2z"/>
    </symbol>

    <symbol id="right" viewBox="0 0 24 24">
        <path fill-rule="evenodd" d="M9.146 16.957c-.395-.391-.395-1.025 0-1.417L12.714 12 9.146 8.46c-.395-.392-.395-1.026 0-1.417.394-.39 1.033-.39 1.427 0l4.281 4.249c.395.391.395 1.025 0 1.416l-4.281 4.249c-.394.39-1.033.39-1.427 0z"/>
    </symbol>

    <symbol id="settings" viewBox="0 0 24 24">
        <path d="M3 6V3c0-.6.4-1 1-1s1 .4 1 1v3c0 .6-.4 1-1 1s-1-.4-1-1zm17 5c-.6 0-1 .4-1 1v9c0 .6.4 1 1 1s1-.4 1-1v-9c0-.6-.4-1-1-1zm-8 2c.6 0 1-.4 1-1V3c0-.6-.4-1-1-1s-1 .4-1 1v9c0 .6.4 1 1 1zM6 9H2c-.6 0-1 .4-1 1s.4 1 1 1h1v10c0 .6.4 1 1 1s1-.4 1-1V11h1c.6 0 1-.4 1-1s-.4-1-1-1zm16-2h-1V3c0-.6-.4-1-1-1s-1 .4-1 1v4h-1c-.6 0-1 .4-1 1s.4 1 1 1h4c.6 0 1-.4 1-1s-.4-1-1-1zm-8 8h-4c-.6 0-1 .4-1 1s.4 1 1 1h1v4c0 .6.4 1 1 1s1-.4 1-1v-4h1c.6 0 1-.4 1-1s-.4-1-1-1z"/>
    </symbol>

    <symbol id="store" viewBox="0 0 24 24">
        <path fill-rule="evenodd" d="M20 4.5V3H4v1.5H2V3c0-1.105.895-2 2-2h16c1.105 0 2 .895 2 2v1.5l1.272 4.45c.293 1.028-.273 2.097-1.271 2.44L22 21c0 1.105-.895 2-2 2H4c-1.105 0-2-.895-2-2v-9.609C1.214 11.121.65 10.376.65 9.5c0-.186.026-.37.077-.55L2 4.5h18zm0 7H4V21h16v-9.5zm.491-5H3.508l-.857 3H21.35l-.858-3z"/>
    </symbol>

    <symbol id="support" viewBox="0 0 24 24">
        <path fill-rule="evenodd" d="M19.8 19.8c2-2 3.2-4.7 3.2-7.8 0-3-1.2-5.8-3.2-7.8S15 1 12 1 6.2 2.2 4.2 4.2 1 9 1 12s1.2 5.8 3.2 7.8S8.9 23 12 23c3 0 5.8-1.2 7.8-3.2zm-.8-2.2l-2.9-2.9c.6-.7.9-1.7.9-2.7 0-1-.3-2-.8-2.8L19 6.4c1.2 1.5 2 3.5 2 5.6 0 2.1-.7 4.1-2 5.6zM9 12c0-1.7 1.3-3 3-3s3 1.3 3 3-1.3 3-3 3-3-1.3-3-3zm8.6-7l-2.9 2.9C14 7.3 13 7 12 7c-1 0-2 .3-2.8.8L6.4 5C7.9 3.7 9.9 3 12 3c2.1 0 4.1.7 5.6 2zM5 6.4l2.9 2.9C7.3 10 7 11 7 12c0 1 .3 2 .8 2.8L5 17.6c-1.2-1.5-2-3.5-2-5.6 0-2.1.7-4.1 2-5.6zM6.4 19l2.9-2.9c.7.6 1.7.9 2.7.9 1 0 2-.3 2.8-.8l2.9 2.9c-1.5 1.2-3.5 2-5.6 2-2.2-.1-4.2-.8-5.7-2.1z"/>
    </symbol>

    <symbol id="tick" viewBox="0 0 24 24">
        <path fill-rule="evenodd" d="M18.154 6.325c.423-.433 1.107-.433 1.53 0 .393.405.42 1.045.078 1.482l-.079.09-9.513 9.778c-.394.405-1.017.432-1.441.08l-.088-.08-4.324-4.445c-.423-.434-.423-1.137 0-1.571.394-.405 1.016-.432 1.44-.081l.089.08 3.56 3.66 8.748-8.993z"/>
    </symbol>

    <symbol id="plus" viewBox="0 0 24 24">
        <path fill-rule="evenodd" d="M12 6c.552 0 1 .448 1 1l-.001 4H17c.552 0 1 .448 1 1s-.448 1-1 1h-4.001L13 17c0 .552-.448 1-1 1s-1-.448-1-1l-.001-4H7c-.552 0-1-.448-1-1s.448-1 1-1h3.999L11 7c0-.552.448-1 1-1z"/>
    </symbol>

    <symbol id="info-plan" viewBox="0 0 24 24">
        <path d="M12 4c4.418 0 8 3.582 8 8s-3.582 8-8 8-8-3.582-8-8 3.582-8 8-8zm0 7c-.552 0-1 .448-1 1v4c0 .552.448 1 1 1s1-.448 1-1v-4c0-.552-.448-1-1-1zm0-4c-.552 0-1 .448-1 1s.448 1 1 1 1-.448 1-1-.448-1-1-1z"/>
    </symbol>

    <symbol id="dashboard-link" viewBox="0 0 24 24">
        <path fill-rule="evenodd" d="M10 6c.552 0 1 .448 1 1 0 .513-.386.936-.883.993L10 8H6v10h10v-4c0-.552.448-1 1-1 .513 0 .936.386.993.883L18 14v4c0 1.105-.895 2-2 2H6c-1.105 0-2-.895-2-2V8c0-1.105.895-2 2-2h4zm9.01-2c.142 0 .212.07.354.07.283.142.495.354.566.566.07.07.07.212.07.354l-.005 4.662c0 .283-.142.566-.284.708-.141.142-.425.283-.708.284-.566 0-.99-.424-.99-.99l.003-2.256-7.043 7.043c-.425.425-.99.426-1.415.001-.424-.424-.424-.99.001-1.415l7.043-7.043-2.255.003c-.567 0-.99-.424-.99-.99 0-.566.425-.991.991-.992z"/>
    </symbol>

    <symbol id="staff" viewBox="0 0 24 24">
        <path d="M12 13c2.142 0 3.891 1.684 3.995 3.8L16 17v2c0 .552-.448 1-1 1s-1-.448-1-1v-2c0-1.054-.816-1.918-1.85-1.995L12 15H6c-1.054 0-1.918.816-1.995 1.85L4 17v2c0 .552-.448 1-1 1s-1-.448-1-1v-2c0-2.142 1.684-3.891 3.8-3.995L6 13h6zm9.718-4.697c.376.405.376 1.06 0 1.465L19 12.697c-.375.404-.984.404-1.36 0l-1.358-1.465c-.376-.404-.376-1.06 0-1.464.375-.405.983-.405 1.359 0l.68.732 2.038-2.197c.376-.404.984-.404 1.36 0zM9 4c2.21 0 4 1.79 4 4s-1.79 4-4 4-4-1.79-4-4 1.79-4 4-4zm0 2c-1.105 0-2 .895-2 2s.895 2 2 2 2-.895 2-2-.895-2-2-2z"/>
    </symbol>

    <symbol id="activity-log" viewBox="0 0 24 24">
        <path d="M6.66 10.367l2.292-5.749c.205-.513.786-.763 1.3-.558.263.105.47.317.568.584l3.838 10.452.59-3.277c.087-.476.501-.822.985-.822h3.772c.55 0 .995.445.995.994 0 .55-.445.995-.995.995H17.94c-.484 0-.898.347-.984.823l-.97 5.381c-.098.544-.618.905-1.161.807-.35-.063-.64-.306-.762-.64L9.84 7.863l-1.79 4.493c-.152.38-.52.63-.93.63H3.995c-.55 0-.995-.445-.995-.995 0-.549.445-.994.995-.994H5.73c.41 0 .777-.25.929-.63z"/>
    </symbol>

    <symbol id="arrow-right" viewBox="0 0 24 24">
        <path fill-rule="evenodd" d="M19.925 12.4c.1-.2.1-.5 0-.8-.1-.1-.1-.2-.2-.3l-4.008-4c-.4-.4-1.001-.4-1.402 0-.4.4-.4 1 0 1.4l2.304 2.3H5.002C4.4 11 4 11.4 4 12s.4 1 1.002 1h11.617l-2.304 2.3c-.4.4-.4 1 0 1.4.2.2.5.3.701.3.2 0 .501-.1.701-.3l4.008-4c.1-.1.2-.2.2-.3z"/>
    </symbol>

    <symbol id="edit" viewBox="0 0 24 24">
        <path fill-rule="evenodd" d="M18.999 17.977c.553 0 1.001.453 1.001 1.011 0 .56-.448 1.012-1.001 1.012h-4.193c-.553 0-1.001-.453-1.001-1.012 0-.558.448-1.011 1-1.011H19zM17.448 5.073l.997 1.032c.757.785.757 2.036 0 2.821L8.348 19.386c-.339.35-.791.563-1.271.602l-.181.007-1.883-.02c-.544-.006-.984-.45-.99-1l-.019-2.027c-.005-.534.2-1.049.568-1.43L14.62 5.108c.366-.378.842-.581 1.326-.607l.162-.002c.485.014.966.204 1.34.573zM16.05 6.52L6.004 16.928l.009 1.036.903.01L17.013 7.517l-.962-.996z"/>
    </symbol>

    <symbol id="set-pass" viewBox="0 0 24 24">
        <path d="M10.702 5.607c2.127-2.143 5.578-2.143 7.705 0 2.124 2.138 2.124 5.603 0 7.742-1.38 1.39-3.359 1.906-5.192 1.44l-.082-.024-1.371 1.382c-.351.354-.83.538-1.317.519l-.056.26c-.127.588-.607 1.01-1.17 1.09l-.114.01-.011.07c-.119.684-.617 1.236-1.276 1.426l-.144.036-2.065.416c-.73.147-1.438-.329-1.583-1.059C4.009 18.83 4 18.74 4 18.652v-1.656c0-.478.189-.936.525-1.275L9.3 10.912l-.025-.09c-.444-1.767.01-3.67 1.266-5.046zm6.444 1.252c-1.432-1.442-3.75-1.442-5.183 0-1.042 1.05-1.352 2.612-.823 3.973l.21.539-5.563 5.603c-.006.005-.01.013-.01.022v1.13l1.546-.311.012-.007.007-.016.074-.428.023-.106c.147-.575.634-.973 1.191-1.031l.093-.007.066-.303.025-.095c.213-.729.977-1.148 1.706-.931l-.013-.004 2.164-2.178.545.214c1.345.531 2.89.221 3.93-.827 1.435-1.445 1.435-3.791 0-5.237zm-2.23.737c.736 0 1.332.597 1.332 1.333 0 .737-.596 1.334-1.333 1.334-.736 0-1.333-.597-1.333-1.334 0-.736.597-1.333 1.333-1.333z"/>
    </symbol>

    <symbol id="view-invoices" viewBox="0 0 24 24">
        <path fill-rule="evenodd" d="M14.636 3c.551 0 1.078.228 1.456.63l2.864 3.042c.35.371.544.862.544 1.371V19c0 1.105-.895 2-2 2h-11c-1.105 0-2-.895-2-2V5c0-1.105.895-2 2-2h8.136zm-2.017 1.999L6.5 5v14h11v-9h-2.88c-1.105 0-2-.895-2-2l-.001-3.001zM14.5 15c.552 0 1 .448 1 1s-.448 1-1 1h-5c-.552 0-1-.448-1-1s.448-1 1-1h5zm-3-4c.552 0 1 .448 1 1s-.448 1-1 1h-2c-.552 0-1-.448-1-1s.448-1 1-1h2zm3.136-6l-.017-.001V8h2.841l-2.824-3z"/>
    </symbol>

    <symbol id="gateways2" viewBox="0 0 24 24">
        <path d="M21.9372858,14.0036034 C22.4895706,14.0036034 22.9372858,14.4513187 22.9372858,15.0036034 L22.9372858,15.0036034 L22.9372858,15.2249767 C22.9372858,15.7772615 22.4895706,16.2249767 21.9372858,16.2249767 L21.9372858,16.2249767 L4.94228584,16.2246034 L8.26266805,19.1234857 C8.64756387,19.4593994 8.71738303,20.031415 8.42458562,20.4500466 L8.42458562,20.4500466 L8.3271993,20.5892863 C8.30754563,20.6173864 8.28639936,20.6444125 8.26385156,20.6702482 C7.91549005,21.0694069 7.30950514,21.1105862 6.91034638,20.7622247 L6.91034638,20.7622247 L1.54221567,16.0790081 C1.43547477,16.0138145 1.34190877,15.929172 1.26653427,15.8297865 C0.947406251,15.4884816 0.905092013,14.9646723 1.17815028,14.574263 L1.121,14.666 L1.16722132,14.5580328 C1.31286413,14.2658902 1.59725941,14.0550445 1.93410642,14.0117967 L2.06271416,14.0036034 Z M22.8807222,9.32877145 L22.8218497,9.42573701 L22.878,9.333 L22.8327787,9.44196718 C22.6871359,9.73410982 22.4027406,9.94495545 22.0658936,9.98820334 L21.9372858,9.9963966 L2.06271416,9.9963966 C1.51042941,9.9963966 1.06271416,9.54868135 1.06271416,8.9963966 L1.06271416,8.9963966 L1.06271416,8.77502328 C1.06271416,8.22273853 1.51042941,7.77502328 2.06271416,7.77502328 L2.06271416,7.77502328 L19.0577142,7.7753966 L15.7373319,4.87651429 C15.3524361,4.5406006 15.282617,3.96858502 15.5754144,3.54995335 L15.5754144,3.54995335 L15.6728007,3.41071374 C15.6924544,3.3826136 15.7136006,3.3555875 15.7361484,3.32975184 C16.08451,2.93059308 16.6904949,2.88941379 17.0896536,3.2377753 L17.0896536,3.2377753 L22.4577843,7.92099193 C22.5645252,7.98618554 22.6580912,8.07082802 22.7334657,8.1702135 C23.0525937,8.51151835 23.094908,9.0353277 22.8218497,9.42573701 L22.879,9.331 L22.8807222,9.32877145 Z"></path>
    </symbol>

    <symbol id="search" viewBox="0 0 24 24">
        <path fill="#F8F9FB" d="M9.735 4c3.167 0 5.735 2.568 5.735 5.735 0 1.236-.391 2.38-1.056 3.317.197.033.386.126.538.278l4.816 4.816c.39.39.39 1.024 0 1.414l-.208.208c-.39.39-1.024.39-1.414 0l-4.816-4.816c-.152-.152-.245-.341-.279-.539-.935.666-2.08 1.057-3.316 1.057C6.568 15.47 4 12.902 4 9.735 4 6.568 6.568 4 9.735 4zm0 2C7.672 6 6 7.672 6 9.735c0 2.063 1.672 3.735 3.735 3.735.7 0 1.366-.191 1.944-.546l.213-.14.524-.374.367-.516c.395-.557.63-1.208.678-1.898l.009-.261C13.47 7.672 11.798 6 9.735 6z"/>
    </symbol>
</svg>
