<svg xmlns='http://www.w3.org/2000/svg' xmlns:xlink='http://www.w3.org/1999/xlink'>
    <symbol id="close" viewBox="0 0 24 24">
        <path fill-rule="evenodd" d="M16.21 7.79c.387.388.387 1.016 0 1.404L13.402 12l2.806 2.806c.388.388.388 1.016 0 1.403-.387.388-1.015.388-1.403 0L12 13.403 9.194 16.21c-.388.388-1.016.388-1.403 0-.388-.387-.388-1.015 0-1.403L10.597 12 7.79 9.194c-.388-.388-.388-1.016 0-1.403.387-.388 1.015-.388 1.403 0L12 10.597l2.806-2.806c.388-.388 1.016-.388 1.403 0z"/>
    </symbol>

    <symbol id="arrow-link" viewBox="0 0 24 24">
        <path fill-rule="evenodd" d="M15.423 7.043l4.266 4.232c.064.061.12.13.167.207l.012.022c.015.025.028.051.04.078l.018.04c.009.021.017.042.024.064l.015.051c.006.02.01.04.015.061l.009.053.007.062.003.055L20 12v.033l-.004.052L20 12c0 .05-.004.1-.011.149l-.01.053c-.004.02-.008.04-.014.06l-.016.052c-.006.022-.014.043-.023.064l-.018.04c-.012.027-.025.053-.04.078l-.013.021c-.046.077-.102.147-.166.208l-4.266 4.232c-.394.39-1.033.39-1.427 0-.395-.391-.395-1.025 0-1.417L16.554 13H5c-.552 0-1-.448-1-1s.448-1 1-1h11.556l-2.56-2.54c-.395-.392-.395-1.026 0-1.417.394-.39 1.033-.39 1.427 0z"/>
    </symbol>

    <symbol id="bvi" viewBox="0 0 576 512">
        <path fill="#057389" d="M572.52 241.4C518.29 135.59 410.93 64 288 64S57.68 135.64 3.48 241.41a32.35 32.35 0 0 0 0 29.19C57.71 376.41 165.07 448 288 448s230.32-71.64 284.52-177.41a32.35 32.35 0 0 0 0-29.19zM288 400a144 144 0 1 1 144-144 143.93 143.93 0 0 1-144 144zm0-240a95.31 95.31 0 0 0-25.31 3.79 47.85 47.85 0 0 1-66.9 66.9A95.78 95.78 0 1 0 288 160z" />
    </symbol>
</svg>
