<svg xmlns="http://www.w3.org/2000/svg"><symbol id="close" viewBox="0 0 24 24"><path fill-rule="evenodd" d="M16.21 7.79a.994.994 0 010 1.404L13.402 12l2.806 2.806a.991.991 0 11-1.403 1.403L12 13.403 9.194 16.21a.991.991 0 11-1.403-1.403L10.597 12 7.79 9.194a.991.991 0 111.403-1.403L12 10.597l2.806-2.806a.991.991 0 011.403 0z"/></symbol><symbol id="arrow-link" viewBox="0 0 24 24"><path fill-rule="evenodd" d="M15.423 7.043l4.266 4.232c.064.061.12.13.167.207l.012.022a.716.716 0 01.04.078l.018.04a.7.7 0 01.024.064l.015.051c.006.02.01.04.015.061l.009.053.007.062.003.055L20 12v.033l-.004.052L20 12c0 .05-.004.1-.011.149l-.01.053c-.004.02-.008.04-.014.06l-.016.052a.488.488 0 01-.023.064l-.018.04a.716.716 0 01-.04.078l-.013.021a.986.986 0 01-.166.208l-4.266 4.232c-.394.39-1.033.39-1.427 0a.995.995 0 010-1.417L16.554 13H5a1 1 0 010-2h11.556l-2.56-2.54a.995.995 0 010-1.417 1.016 1.016 0 011.427 0z"/></symbol></svg>