<svg xmlns="http://www.w3.org/2000/svg"><symbol id="what-s-new" viewBox="0 0 24 24"><path fill-rule="evenodd" d="M19.778 1A3.222 3.222 0 0123 4.222v11.111a3.223 3.223 0 01-3.222 3.223l-12.92-.001-4.15 4.152c-.603.603-1.615.22-1.702-.593L1 22V4.222A3.222 3.222 0 014.222 1zm0 2H4.222C3.547 3 3 3.547 3 4.222v15.362l2.737-2.736c.157-.156.36-.255.576-.284l.131-.008h13.334c.675 0 1.222-.548 1.222-1.223V4.223C21 3.546 20.453 3 19.778 3zM12 8.5a1 1 0 011 1v4a1 1 0 01-2 0v-4a1 1 0 011-1zM12 5a1 1 0 110 2 1 1 0 010-2z"/></symbol><symbol id="attach-files" viewBox="0 0 24 24"><path fill-rule="evenodd" d="M10.5 2a4.5 4.5 0 014.495 4.288L15 6.5V16a3 3 0 01-5.995.176L9 16V8a1 1 0 011.993-.117L11 8v8a1 1 0 001.993.117L13 16V6.5a2.5 2.5 0 00-4.995-.164L8 6.5V16a4 4 0 007.995.2L16 16V6a1 1 0 012 0v10a6 6 0 01-11.98.5H6v-10A4.5 4.5 0 0110.5 2z"/></symbol><symbol id="burger-menu" viewBox="0 0 24 24"><path fill-rule="evenodd" d="M21 18a1 1 0 010 2H3a1 1 0 010-2h18zm0-7a1 1 0 010 2H3a1 1 0 010-2h18zm0-7a1 1 0 010 2H3a1 1 0 010-2h18z"/></symbol><symbol id="child-panels" viewBox="0 0 24 24"><path fill-rule="evenodd" d="M22.936 16.892a.72.72 0 01.064.296v.433c0 .4-.222.766-.57.939l-9.57 4.738c-.544.27-1.176.27-1.72 0L1.57 18.56a1.046 1.046 0 01-.57-.94v-.432c0-.38.296-.688.661-.688.099 0 .196.023.285.067l9.194 4.552c.544.27 1.176.27 1.72 0l9.194-4.552a.651.651 0 01.882.325zm0-5a.72.72 0 01.064.296v.433c0 .4-.222.766-.57.939l-9.57 4.738c-.544.27-1.176.27-1.72 0L1.57 13.56a1.046 1.046 0 01-.57-.94v-.432c0-.38.296-.688.661-.688.099 0 .196.023.285.067l9.194 4.552c.544.27 1.176.27 1.72 0l9.194-4.552a.651.651 0 01.882.325zM12.953.728L23.41 6.033a1.087 1.087 0 010 1.934l-10.458 5.305c-.6.304-1.306.304-1.906 0L.59 7.967a1.088 1.088 0 01-.001-1.934L11.047.728a2.106 2.106 0 011.906 0zM9.718 7.966L7.369 9.164l4.583 2.324c.02.01.043.014.064.01l.032-.01 2.296-1.165-4.626-2.357zm6.523-3.328L11.92 6.843l4.631 2.36 4.345-2.204-4.655-2.361zm-4.257-2.137l-.032.01L3.103 7l2.06 1.045 8.871-4.527-1.986-1.006c-.02-.01-.043-.014-.064-.01z"/></symbol><symbol id="close" viewBox="0 0 24 24"><path fill-rule="evenodd" d="M16.21 7.79a.994.994 0 010 1.404L13.402 12l2.806 2.806a.991.991 0 11-1.403 1.403L12 13.403 9.194 16.21a.991.991 0 11-1.403-1.403L10.597 12 7.79 9.194a.991.991 0 111.403-1.403L12 10.597l2.806-2.806a.991.991 0 011.403 0z"/></symbol><symbol id="copy" viewBox="0 0 24 24"><path fill-rule="evenodd" d="M18 9a2 2 0 012 2v7a2 2 0 01-2 2h-7a2 2 0 01-2-2v-7a2 2 0 012-2h7zm0 2h-7v7h7v-7zm-5-7a2 2 0 012 2v1h-2V6H6v7h1v2H6a2 2 0 01-2-2V6a2 2 0 012-2h7z"/></symbol><symbol id="domains" viewBox="0 0 24 24"><path fill-rule="evenodd" d="M12 1c6.075 0 11 4.925 11 11s-4.925 11-11 11S1 18.075 1 12 5.925 1 12 1zm0 16c-.767 0-1.515.018-2.247.053.183.597.394 1.162.63 1.682C11.068 20.242 11.807 21 12 21c.193 0 .932-.758 1.617-2.265.236-.52.447-1.085.63-1.68A43.409 43.409 0 0012 17zm-4.286.202l-.464.048c-.793.088-1.562.2-2.308.334a9.002 9.002 0 004.095 2.917c-.522-.924-.976-2.054-1.323-3.299zm8.572 0c-.348 1.248-.802 2.376-1.324 3.299a9.018 9.018 0 004.096-2.916c-.89-.162-1.815-.29-2.772-.384zM3.783 8.324l-.076.172A8.986 8.986 0 003 12c0 1.31.28 2.554.783 3.677a50.184 50.184 0 013.493-.454C7.098 14.18 7 13.09 7 12s.098-2.178.275-3.224a51.457 51.457 0 01-3.492-.451zm16.434-.002l-.717.114c-.925.14-1.85.252-2.776.34C16.902 9.822 17 10.91 17 12c0 1.09-.098 2.179-.275 3.225 1.164.108 2.328.259 3.492.45A8.951 8.951 0 0021 12c0-1.31-.28-2.554-.783-3.677zm-5.496.602l-.221.012a50.431 50.431 0 01-5.221-.01A17.599 17.599 0 009 12c0 1.023.098 2.067.279 3.075a49.425 49.425 0 015.442-.001c.18-1.007.279-2.05.279-3.074 0-1.023-.098-2.067-.279-3.075zM12 3c-.193 0-.932.758-1.617 2.265-.236.52-.447 1.085-.63 1.68a47.018 47.018 0 004.494.002 14.038 14.038 0 00-.63-1.682c-.65-1.431-1.35-2.187-1.584-2.26L12 3zm-2.962.5l-.073.025a9.014 9.014 0 00-4.023 2.89c.89.162 1.815.29 2.772.384.347-1.246.801-2.376 1.324-3.3zm5.925 0l.102.185c.48.888.897 1.95 1.22 3.113a34.592 34.592 0 002.773-.382 9.002 9.002 0 00-4.095-2.917z"/></symbol><symbol id="down" viewBox="0 0 24 24"><path fill-rule="evenodd" d="M7.043 9.146a.995.995 0 011.417 0L12 12.714l3.54-3.568a.995.995 0 011.417 0c.39.394.39 1.033 0 1.427l-4.249 4.281a.994.994 0 01-1.416 0l-4.249-4.281a1.016 1.016 0 010-1.427z"/></symbol><symbol id="gateways" viewBox="0 0 24 24"><path fill-rule="evenodd" d="M17.51 1.767c.034.085.062.171.083.26l.938 3.804h1.803c.548 0 .993.452.993 1.008 0 .169-.042.335-.121.483l-1.05 1.95a3.987 3.987 0 01-2.121 1.855v.75c0 .244-.015.485-.043.722l4.376 3.167.119.117a1.9 1.9 0 01-.24 2.815l-.137.095-1.689 1.076 1.288 1.903.058.112c.051.117.08.245.08.38 0 .53-.436.958-.972.958a.983.983 0 01-.708-.3l-.072-.084-1.306-1.93-1.23.783a.968.968 0 01-.54.162.955.955 0 01-.641-1.679l.09-.07 4.59-2.922-3.637-2.632a6.03 6.03 0 01-1.703 2.11l-2.735 6.241a.987.987 0 01-1.815 0L8.433 16.66a6.065 6.065 0 01-1.742-2.192l-3.749 2.714 4.59 2.921c.253.175.42.464.42.792 0 .53-.435.958-.971.958-.2 0-.386-.06-.54-.162l-1.23-.782-1.306 1.93a.983.983 0 01-.78.383.965.965 0 01-.971-.958c0-.135.028-.263.079-.38l.058-.112 1.288-1.903-1.69-1.076a1.933 1.933 0 01-.38-.318 1.9 1.9 0 01.004-2.592l.12-.117 4.515-3.27c-.02-.203-.03-.41-.03-.62l-.002-.749a3.988 3.988 0 01-2.12-1.854l-1.05-1.951a1.015 1.015 0 01.396-1.367.993.993 0 01.476-.123L5.62 5.83l.939-3.804C6.825.947 7.903.29 8.967.56c.087.022.173.05.256.084l2.484 1.008a.982.982 0 00.738 0L14.929.645a1.977 1.977 0 012.582 1.122zm-4.518 16.154h-1.833l.917 2.09.916-2.09zm3.056-6.548H8.104v.503c0 2.158 1.672 3.92 3.774 4.025l.198.005c2.127 0 3.864-1.696 3.967-3.828l.005-.202v-.503zm2.612-3.526H5.49l.249.46c.321.598.916.987 1.577 1.044l.166.007h9.187c.671 0 1.293-.343 1.658-.905l.086-.145.247-.461zm-2.994-5.332l-2.484 1.008a2.932 2.932 0 01-1.997.078l-.216-.078-2.483-1.008-.818 3.317h8.815l-.817-3.317z"/></symbol><symbol id="gen-password" viewBox="0 0 24 24"><path d="M18.793 13.687a1.046 1.046 0 011.414 0l2.5 2.353c.39.368.39.964 0 1.331l-2.5 2.353A1.028 1.028 0 0119.5 20c-.256 0-.512-.092-.707-.276a.902.902 0 010-1.33l.793-.747h-1.663c-1.528 0-2.951-.644-3.905-1.766l-.704-.827 1.273-1.517.992 1.168c.53.622 1.297.999 2.133 1.053l.21.007h1.664l-.793-.747a.902.902 0 010-1.33zm0-9.411a1.044 1.044 0 011.414 0l2.5 2.353c.39.367.39.963 0 1.33l-2.5 2.353a1.028 1.028 0 01-.707.276c-.256 0-.512-.092-.707-.276a.902.902 0 010-1.33l.793-.747h-1.663c-.917 0-1.77.387-2.343 1.06l-1.968 2.314-1.906 2.242-1.724 2.03c-.954 1.122-2.377 1.766-3.904 1.766H2c-.552 0-1-.422-1-.941 0-.52.448-.941 1-.941h4.077c.917 0 1.77-.387 2.343-1.06L10.72 12l-.002-.002 1.72-2.02 1.58-1.859c.954-1.122 2.377-1.766 3.904-1.766h1.664l-.793-.747a.902.902 0 010-1.33zM6.078 6.353c1.527 0 2.95.644 3.904 1.766l.7.824-1.28 1.506-.981-1.154a3.046 3.046 0 00-2.133-1.053l-.21-.007H2c-.552 0-1-.421-1-.941s.448-.941 1-.941z"/></symbol><symbol id="hosted-email" viewBox="0 0 24 24"><path fill-rule="evenodd" d="M13.5.288a11 11 0 018.496 10.423L22 11v1a3.999 3.999 0 01-7.26 2.318 5 5 0 11-.952-7.469L14 7a1 1 0 011.993-.117L16 7v5a2 2 0 003.995.15L20 12v-1a9 9 0 10-3.528 7.146 1 1 0 011.216 1.588A11 11 0 1113.5.288zM11 8a3 3 0 100 6 3 3 0 000-6z"/></symbol><symbol id="invoices" viewBox="0 0 24 24"><path fill-rule="evenodd" d="M22 21a2 2 0 01-2 2h-9a1 1 0 010-2l.086.004V21H20V9h-3a2 2 0 01-2-2l-.001-4H8v1a1 1 0 01-2 0V3a2 2 0 012-2h8.552c.6 0 1.168.27 1.548.734l3.448 4.213c.247.302.4.669.44 1.053H22v14zM7 7a1 1 0 011 1v1h2a1 1 0 010 2H8v1.999l.5.001a3.5 3.5 0 013.495 3.308L12 16.5a3.5 3.5 0 01-3.308 3.495L8.5 20l-.5-.001V22a1 1 0 01-2 0v-2.001L3 20a1 1 0 010-2l3-.001V15H5a3 3 0 01-2.995-2.824L2 12a3 3 0 012.824-2.995L5 9h1V8a1 1 0 011-1zm1.5 8H8v2.999l.5.001a1.5 1.5 0 001.493-1.356L10 16.5A1.5 1.5 0 008.5 15zM6 11H5a1 1 0 00-.117 1.993L5 13l1-.001V11zm13.826-4l-2.827-3.454V7h2.827z"/></symbol><symbol id="left" viewBox="0 0 24 24"><path fill-rule="evenodd" d="M14.854 7.043a.995.995 0 010 1.417L11.286 12l3.568 3.54a.995.995 0 010 1.417c-.394.39-1.033.39-1.427 0l-4.281-4.249a.994.994 0 010-1.416l4.281-4.249a1.016 1.016 0 011.427 0z"/></symbol><symbol id="logout" viewBox="0 0 24 24"><path fill-rule="evenodd" d="M11.011 22c0 .6-.4 1-1.001 1H5.004C3.302 23 2 21.7 2 20V4c0-1.7 1.302-3 3.004-3h5.006c.6 0 1.001.4 1.001 1s-.4 1-1.001 1H5.004c-.601 0-1.001.4-1.001 1v16c0 .6.4 1 1 1h5.007c.6 0 1.001.4 1.001 1zm10.914-9.6c.1-.2.1-.5 0-.8-.1-.1-.1-.2-.2-.3l-4.005-4a.969.969 0 00-1.402 0c-.4.4-.4 1 0 1.4L18.62 11H9.009c-.601 0-1.001.4-1.001 1s.4 1 1 1h9.613l-2.303 2.3c-.4.4-.4 1 0 1.4.2.2.5.3.7.3.201 0 .501-.1.702-.3l4.005-4c.1-.1.2-.2.2-.3z"/></symbol><symbol id="panels" viewBox="0 0 24 24"><path fill-rule="evenodd" d="M21 1a2 2 0 012 2v18a2 2 0 01-2 2H3a2 2 0 01-2-2V3a2 2 0 012-2h18zM3 21h4V8H3v13zM21 8H9v13h12V8zm0-5H3v3h18V3z"/></symbol><symbol id="parsing-credits" viewBox="0 0 24 24"><path fill-rule="evenodd" d="M12 1c6.075 0 11 4.925 11 11s-4.925 11-11 11c-.277 0-.552-.01-.824-.03l.795-1.97H12a9 9 0 10-8.996-9.265l-.004.27-1.97.807C1.01 12.544 1 12.273 1 12 1 5.925 5.925 1 12 1zm1.638 10.588l-.037.103-4.166 10c-.339.812-1.465.812-1.824.05l-.046-.113-.96-2.82-3.66 3.743a1.001 1.001 0 01-1.512-1.304l.082-.095L5.2 17.385l-2.844-.966c-.791-.268-.899-1.296-.278-1.75l.105-.066.11-.054 10-4.166c.756-.315 1.513.354 1.37 1.102l-.025.103zM12 5a7 7 0 01.798 13.955l.91-2.254a5 5 0 10-6.388-6.463l-2.27.929A6.998 6.998 0 0112 5zm-1.18 8.163l-5.313 2.214 1.847.628c.22.075.406.223.527.417l.055.1.043.108.627 1.846 2.214-5.313z"/></symbol><symbol id="referrals" viewBox="0 0 24 24"><path d="M17.072 19v2c0 .6-.402 1-1.004 1-.603 0-1.004-.4-1.004-1v-2c0-1.7-1.305-3-3.012-3H6.02c-1.707 0-3.012 1.3-3.012 3v2c0 .6-.402 1-1.004 1S1 21.6 1 21v-2c0-2.8 2.209-5 5.02-5h6.032c2.811 0 5.02 2.2 5.02 5zM4.016 7c0-2.8 2.209-5 5.02-5 2.811 0 5.02 2.2 5.02 5s-2.209 5-5.02 5c-2.811 0-5.02-2.2-5.02-5zm2.008 0c0 1.7 1.305 3 3.012 3s3.012-1.3 3.012-3-1.305-3-3.012-3-3.012 1.3-3.012 3zm13.257 7.2c-.502-.1-1.105.2-1.205.7-.1.5.2 1.1.703 1.2 1.305.3 2.208 1.5 2.208 2.9v2c0 .6.402 1 1.004 1 .603 0 1.004-.4 1.004-1v-2c.1-2.3-1.405-4.3-3.714-4.8zm-3.016-12c-.502-.2-1.004.1-1.205.7-.1.5.2 1.1.703 1.2 1.606.4 2.61 2 2.208 3.7-.3 1.1-1.104 1.9-2.208 2.2-.502.1-.904.7-.703 1.2.1.5.502.8 1.004.8h.2c1.808-.5 3.213-1.8 3.615-3.6.703-2.8-.904-5.6-3.614-6.2z"/></symbol><symbol id="right" viewBox="0 0 24 24"><path fill-rule="evenodd" d="M9.146 16.957a.995.995 0 010-1.417L12.714 12 9.146 8.46a.995.995 0 010-1.417 1.016 1.016 0 011.427 0l4.281 4.249a.994.994 0 010 1.416l-4.281 4.249c-.394.39-1.033.39-1.427 0z"/></symbol><symbol id="settings" viewBox="0 0 24 24"><path d="M3 6V3c0-.6.4-1 1-1s1 .4 1 1v3c0 .6-.4 1-1 1s-1-.4-1-1zm17 5c-.6 0-1 .4-1 1v9c0 .6.4 1 1 1s1-.4 1-1v-9c0-.6-.4-1-1-1zm-8 2c.6 0 1-.4 1-1V3c0-.6-.4-1-1-1s-1 .4-1 1v9c0 .6.4 1 1 1zM6 9H2c-.6 0-1 .4-1 1s.4 1 1 1h1v10c0 .6.4 1 1 1s1-.4 1-1V11h1c.6 0 1-.4 1-1s-.4-1-1-1zm16-2h-1V3c0-.6-.4-1-1-1s-1 .4-1 1v4h-1c-.6 0-1 .4-1 1s.4 1 1 1h4c.6 0 1-.4 1-1s-.4-1-1-1zm-8 8h-4c-.6 0-1 .4-1 1s.4 1 1 1h1v4c0 .6.4 1 1 1s1-.4 1-1v-4h1c.6 0 1-.4 1-1s-.4-1-1-1z"/></symbol><symbol id="store" viewBox="0 0 24 24"><path fill-rule="evenodd" d="M20 4.5V3H4v1.5H2V3a2 2 0 012-2h16a2 2 0 012 2v1.5l1.272 4.45a2 2 0 01-1.271 2.44L22 21a2 2 0 01-2 2H4a2 2 0 01-2-2v-9.609A2 2 0 01.727 8.95L2 4.5h18zm0 7H4V21h16v-9.5zm.491-5H3.508l-.857 3H21.35l-.858-3z"/></symbol><symbol id="support" viewBox="0 0 24 24"><path fill-rule="evenodd" d="M19.8 19.8c2-2 3.2-4.7 3.2-7.8 0-3-1.2-5.8-3.2-7.8S15 1 12 1 6.2 2.2 4.2 4.2 1 9 1 12s1.2 5.8 3.2 7.8S8.9 23 12 23c3 0 5.8-1.2 7.8-3.2zm-.8-2.2l-2.9-2.9c.6-.7.9-1.7.9-2.7 0-1-.3-2-.8-2.8L19 6.4c1.2 1.5 2 3.5 2 5.6 0 2.1-.7 4.1-2 5.6zM9 12c0-1.7 1.3-3 3-3s3 1.3 3 3-1.3 3-3 3-3-1.3-3-3zm8.6-7l-2.9 2.9C14 7.3 13 7 12 7c-1 0-2 .3-2.8.8L6.4 5C7.9 3.7 9.9 3 12 3c2.1 0 4.1.7 5.6 2zM5 6.4l2.9 2.9C7.3 10 7 11 7 12c0 1 .3 2 .8 2.8L5 17.6c-1.2-1.5-2-3.5-2-5.6 0-2.1.7-4.1 2-5.6zM6.4 19l2.9-2.9c.7.6 1.7.9 2.7.9 1 0 2-.3 2.8-.8l2.9 2.9c-1.5 1.2-3.5 2-5.6 2-2.2-.1-4.2-.8-5.7-2.1z"/></symbol><symbol id="tick" viewBox="0 0 24 24"><path fill-rule="evenodd" d="M18.154 6.325a1.063 1.063 0 011.53 0c.393.405.42 1.045.078 1.482l-.079.09-9.513 9.778a1.059 1.059 0 01-1.441.08l-.088-.08-4.324-4.445a1.131 1.131 0 010-1.571 1.058 1.058 0 011.44-.081l.089.08 3.56 3.66 8.748-8.993z"/></symbol><symbol id="plus" viewBox="0 0 24 24"><path fill-rule="evenodd" d="M12 6a1 1 0 011 1l-.001 4H17a1 1 0 010 2h-4.001L13 17a1 1 0 01-2 0l-.001-4H7a1 1 0 010-2h3.999L11 7a1 1 0 011-1z"/></symbol><symbol id="info-plan" viewBox="0 0 24 24"><path d="M12 4a8 8 0 110 16 8 8 0 010-16zm0 7a1 1 0 00-1 1v4a1 1 0 002 0v-4a1 1 0 00-1-1zm0-4a1 1 0 100 2 1 1 0 000-2z"/></symbol><symbol id="dashboard-link" viewBox="0 0 24 24"><path fill-rule="evenodd" d="M10 6a1 1 0 01.117 1.993L10 8H6v10h10v-4a1 1 0 011.993-.117L18 14v4a2 2 0 01-2 2H6a2 2 0 01-2-2V8a2 2 0 012-2h4zm9.01-2c.142 0 .212.07.354.07.283.142.495.354.566.566.07.07.07.212.07.354l-.005 4.662c0 .283-.142.566-.284.708a1.084 1.084 0 01-.708.284.966.966 0 01-.99-.99l.003-2.256-7.043 7.043c-.425.425-.99.426-1.415.001-.424-.424-.424-.99.001-1.415l7.043-7.043-2.255.003a.966.966 0 01-.99-.99.97.97 0 01.991-.992z"/></symbol><symbol id="staff" viewBox="0 0 24 24"><path d="M12 13a4 4 0 013.995 3.8L16 17v2a1 1 0 01-2 0v-2a2.001 2.001 0 00-1.85-1.995L12 15H6a2.001 2.001 0 00-1.995 1.85L4 17v2a1 1 0 01-2 0v-2a4 4 0 013.8-3.995L6 13h6zm9.718-4.697c.376.405.376 1.06 0 1.465L19 12.697a.915.915 0 01-1.36 0l-1.358-1.465a1.091 1.091 0 010-1.464.912.912 0 011.359 0l.68.732 2.038-2.197a.915.915 0 011.36 0zM9 4c2.21 0 4 1.79 4 4s-1.79 4-4 4-4-1.79-4-4 1.79-4 4-4zm0 2a2 2 0 10-.001 3.999A2 2 0 009 6z"/></symbol><symbol id="activity-log" viewBox="0 0 24 24"><path d="M6.66 10.367l2.292-5.749a1 1 0 011.868.026l3.838 10.452.59-3.277c.087-.476.501-.822.985-.822h3.772a.994.994 0 110 1.989H17.94a1 1 0 00-.984.823l-.97 5.381a1 1 0 01-1.923.167L9.84 7.863l-1.79 4.493c-.152.38-.52.63-.93.63H3.995a.994.994 0 110-1.989H5.73a1 1 0 00.929-.63z"/></symbol><symbol id="arrow-right" viewBox="0 0 24 24"><path fill-rule="evenodd" d="M19.925 12.4c.1-.2.1-.5 0-.8-.1-.1-.1-.2-.2-.3l-4.008-4a.969.969 0 00-1.402 0c-.4.4-.4 1 0 1.4l2.304 2.3H5.002C4.4 11 4 11.4 4 12s.4 1 1.002 1h11.617l-2.304 2.3c-.4.4-.4 1 0 1.4.2.2.5.3.701.3.2 0 .501-.1.701-.3l4.008-4c.1-.1.2-.2.2-.3z"/></symbol><symbol id="edit" viewBox="0 0 24 24"><path fill-rule="evenodd" d="M18.999 17.977c.553 0 1.001.453 1.001 1.011 0 .56-.448 1.012-1.001 1.012h-4.193a1.006 1.006 0 01-1.001-1.012c0-.558.448-1.011 1-1.011H19zM17.448 5.073l.997 1.032a2.036 2.036 0 010 2.821L8.348 19.386c-.339.35-.791.563-1.271.602l-.181.007-1.883-.02a1.006 1.006 0 01-.99-1l-.019-2.027c-.005-.534.2-1.049.568-1.43L14.62 5.108a1.989 1.989 0 011.326-.607l.162-.002c.485.014.966.204 1.34.573zM16.05 6.52L6.004 16.928l.009 1.036.903.01L17.013 7.517l-.962-.996z"/></symbol><symbol id="set-pass" viewBox="0 0 24 24"><path d="M10.702 5.607a5.42 5.42 0 017.705 0 5.5 5.5 0 010 7.742 5.425 5.425 0 01-5.192 1.44l-.082-.024-1.371 1.382c-.351.354-.83.538-1.317.519l-.056.26a1.4 1.4 0 01-1.17 1.09l-.114.01-.011.07a1.805 1.805 0 01-1.276 1.426l-.144.036-2.065.416A1.345 1.345 0 014 18.652v-1.656c0-.478.189-.936.525-1.275L9.3 10.912l-.025-.09a5.5 5.5 0 011.266-5.046zm6.444 1.252a3.646 3.646 0 00-5.183 0 3.727 3.727 0 00-.823 3.973l.21.539-5.563 5.603a.029.029 0 00-.01.022v1.13l1.546-.311.012-.007.007-.016.074-.428.023-.106a1.378 1.378 0 011.191-1.031l.093-.007.066-.303.025-.095a1.37 1.37 0 011.706-.931l-.013-.004 2.164-2.178.545.214a3.645 3.645 0 003.93-.827 3.724 3.724 0 000-5.237zm-2.23.737a1.332 1.332 0 11-.001 2.667 1.333 1.333 0 010-2.667z"/></symbol><symbol id="view-invoices" viewBox="0 0 24 24"><path fill-rule="evenodd" d="M14.636 3c.551 0 1.078.228 1.456.63l2.864 3.042c.35.371.544.862.544 1.371V19a2 2 0 01-2 2h-11a2 2 0 01-2-2V5a2 2 0 012-2h8.136zm-2.017 1.999L6.5 5v14h11v-9h-2.88a2 2 0 01-2-2l-.001-3.001zM14.5 15a1 1 0 010 2h-5a1 1 0 010-2h5zm-3-4a1 1 0 010 2h-2a1 1 0 010-2h2zm3.136-6l-.017-.001V8h2.841l-2.824-3z"/></symbol><symbol id="gateways2" viewBox="0 0 24 24"><path d="M21.937 14.004a1 1 0 011 1v.221a1 1 0 01-1 1H4.942l3.32 2.898a1 1 0 01.163 1.327l-.098.14a.96.96 0 01-1.417.172L1.542 16.08a1 1 0 01-.275-.25 1 1 0 01-.089-1.255l-.057.092.046-.108a1 1 0 01.767-.546l.129-.008zm.944-4.675l-.06.097.057-.093-.045.109a1 1 0 01-.767.546l-.129.008H2.063a1 1 0 01-1-1v-.221a1 1 0 011-1h16.995l-3.32-2.898a1 1 0 01-.163-1.327l.098-.14a.96.96 0 011.417-.172l5.368 4.683a1 1 0 01.275.25 1 1 0 01.089 1.255l.057-.095.002-.002z"/></symbol><symbol id="search" viewBox="0 0 24 24"><path fill="#F8F9FB" d="M9.735 4a5.735 5.735 0 014.679 9.052.99.99 0 01.538.278l4.816 4.816a1 1 0 010 1.414l-.208.208a1 1 0 01-1.414 0l-4.816-4.816a.998.998 0 01-.279-.539A5.735 5.735 0 119.735 4zm0 2a3.735 3.735 0 101.944 6.924l.213-.14.524-.374.367-.516c.395-.557.63-1.208.678-1.898l.009-.261A3.735 3.735 0 009.735 6z"/></symbol></svg>